<?xml version="1.0" encoding="UTF-8"?>
<!-- Generator: visioncortex VTracer 0.6.4 -->
<svg version="1.1" xmlns="http://www.w3.org/2000/svg" width="200" height="200">
<path d="M0 0 C4.01 1.24 7.56 2.7 11.21 4.77 C12.2 5.32 13.18 5.87 14.2 6.44 C15.77 7.34 15.77 7.34 17.38 8.25 C18.47 8.87 19.56 9.49 20.69 10.12 C31.24 16.1 41.8 22.09 52.17 28.39 C55.03 30.08 55.03 30.08 58.34 31.44 C61.75 33.02 64.3 34.38 67 37 C68.45 42.01 68.15 46.79 67.75 51.94 C67.69 53.3 67.63 54.67 67.59 56.03 C67.44 59.36 67.25 62.68 67 66 C66.5 66.26 66 66.52 65.49 66.79 C63.22 67.99 60.95 69.18 58.69 70.38 C57.9 70.79 57.12 71.2 56.31 71.62 C55.17 72.22 55.17 72.22 54.01 72.84 C53.32 73.2 52.62 73.57 51.9 73.95 C50.22 74.88 48.6 75.93 47 77 C47.6 77.28 48.2 77.55 48.82 77.84 C51.55 79.12 54.24 80.46 56.94 81.81 C57.88 82.24 58.83 82.68 59.8 83.12 C66.54 86.57 66.54 86.57 67.83 90.55 C68.09 93.4 68.09 96.14 68 99 C68.12 100.46 68.26 101.91 68.41 103.36 C68.48 104.67 68.55 105.97 68.62 107.31 C68.72 108.63 68.82 109.94 68.91 111.3 C67.9 115.41 67.49 115.81 64.17 118.08 C62.46 119.08 60.74 120.05 59 121 C57.66 121.78 57.66 121.78 56.3 122.57 C53.44 124.22 50.57 125.83 47.69 127.44 C39.78 131.82 39.78 131.82 32.01 136.43 C30.98 137.07 29.94 137.71 28.88 138.38 C28.03 138.92 27.18 139.46 26.3 140.02 C23.35 141.27 22.07 140.83 19 140 C16.61 138.85 16.61 138.85 14.11 137.41 C13.18 136.88 12.25 136.34 11.29 135.8 C10.31 135.22 9.33 134.65 8.31 134.06 C6.26 132.88 4.2 131.7 2.14 130.52 C1.11 129.93 0.09 129.34 -0.97 128.73 C-5.44 126.18 -9.93 123.68 -14.44 121.19 C-16.93 119.81 -19.43 118.42 -22 117 C-22 107.76 -22 98.52 -22 89 C-18.12 90.55 -14.83 92.14 -11.23 94.2 C-10.11 94.85 -8.98 95.49 -7.82 96.16 C-6.61 96.85 -5.4 97.55 -4.19 98.25 C-2.94 98.97 -1.69 99.68 -0.44 100.4 C8.77 105.69 17.94 111.02 27.09 116.39 C32.69 119.67 38.32 122.88 44 126 C45.38 118.32 46.26 110.29 43 103 C36.52 96.63 27.56 93.15 19.34 89.52 C14.97 87.53 10.93 85.17 6.88 82.62 C5.97 82.08 5.97 82.08 5.05 81.52 C1.17 79.17 1.17 79.17 0 78 C-0.09 76 -0.11 74 -0.1 72 C-0.09 70.78 -0.09 69.57 -0.09 68.31 C-0.08 67.04 -0.07 65.76 -0.06 64.44 C-0.06 63.15 -0.05 61.87 -0.05 60.55 C-0.04 57.37 -0.02 54.18 0 51 C3.2 51.66 5.72 52.8 8.57 54.37 C9.9 55.1 9.9 55.1 11.26 55.85 C12.21 56.37 13.15 56.9 14.12 57.44 C15.09 57.97 16.06 58.5 17.06 59.05 C20.04 60.7 23.02 62.35 26 64 C26.92 64.51 27.84 65.02 28.79 65.55 C33.87 68.36 38.93 71.17 44 74 C45.46 66.3 46.33 58.3 43 51 C39.1 47.16 34.7 44.62 29.88 42.12 C29.24 41.79 28.61 41.46 27.95 41.12 C22.03 38.08 16 35.37 9.8 32.94 C5.65 31.17 2.77 29.72 0 26 C-1.73 17.45 -0.91 8.61 0 0 Z " fill="#10A37F" transform="translate(74,29)"/>
</svg>
